<svg width="50" height="50" viewBox="0 0 100 100" fill="none" xmlns="http://www.w3.org/2000/svg">
<path d="M59.9715 6.28806L60.1181 6.36392L60.2812 6.38868L71.3818 8.07348L76.4123 18.1106L76.4862 18.2581L76.6037 18.3741L84.5916 26.2604L82.7634 37.3372L82.7365 37.5L82.7634 37.6628L84.5916 48.7396L76.6037 56.6259L76.4862 56.7419L76.4123 56.8894L71.3818 66.9265L60.2812 68.6113L60.1181 68.6361L59.9715 68.7119L50 73.8739L40.0285 68.7119L39.882 68.6361L39.7188 68.6113L28.6183 66.9265L23.5878 56.8894L23.5138 56.7419L23.3963 56.6259L15.4085 48.7396L17.2367 37.6628L17.2636 37.5L17.2367 37.3372L15.4085 26.2604L23.3963 18.3741L23.5138 18.2581L23.5878 18.1106L28.6183 8.07348L39.7188 6.38868L39.882 6.36392L40.0285 6.28806L50 1.12605L59.9715 6.28806Z" fill="black" stroke="white" stroke-width="2"/>
<path d="M50.2425 83.0674L50 83.0067L49.7575 83.0674L26 89.0067V65.1631L37.2994 66.8765L49.5403 73.2131L50 73.451L50.4597 73.2131L62.7006 66.8765L74 65.1631V89.0067L50.2425 83.0674Z" fill="black" stroke="white" stroke-width="2"/>
<path d="M39.1094 15.7422C39.526 15.8073 39.9036 15.8659 40.2422 15.918C40.5807 15.957 40.8737 15.9896 41.1211 16.0156C41.4076 16.0547 41.6615 16.0872 41.8828 16.1133C42.1562 16.1523 42.5664 16.1068 43.1133 15.9766C43.6602 15.8333 44.2591 15.7031 44.9102 15.5859C45.5742 15.4557 46.2513 15.3841 46.9414 15.3711C47.6315 15.3451 48.263 15.4688 48.8359 15.7422C49.4089 16.0156 49.8776 16.2891 50.2422 16.5625C50.6068 16.8359 50.8932 17.1289 51.1016 17.4414C51.3229 17.7409 51.4792 18.0599 51.5703 18.3984C51.6615 18.737 51.7135 19.1081 51.7266 19.5117C51.7135 20.1107 51.5703 20.6901 51.2969 21.25C51.1797 21.4844 51.0234 21.7318 50.8281 21.9922C50.6458 22.2396 50.418 22.4805 50.1445 22.7148C49.8711 22.9492 49.5456 23.1706 49.168 23.3789C48.8034 23.5872 48.3737 23.7695 47.8789 23.9258C48.3607 24.069 48.7578 24.2383 49.0703 24.4336C49.3958 24.6289 49.6562 24.8112 49.8516 24.9805C50.0859 25.1888 50.2617 25.3906 50.3789 25.5859C50.5221 25.8594 50.6198 26.0938 50.6719 26.2891C50.724 26.4844 50.7565 26.6732 50.7695 26.8555C50.7956 27.0247 50.8281 27.2005 50.8672 27.3828C50.9062 27.5651 50.9909 27.7734 51.1211 28.0078C51.2253 28.1901 51.349 28.3789 51.4922 28.5742C51.6224 28.7435 51.7721 28.9258 51.9414 29.1211C52.1237 29.3164 52.3451 29.5052 52.6055 29.6875C52.2409 29.7005 51.9023 29.707 51.5898 29.707C51.2904 29.707 51.0299 29.707 50.8086 29.707C50.5482 29.707 50.3008 29.7005 50.0664 29.6875C49.832 29.6745 49.5391 29.668 49.1875 29.668C48.888 29.668 48.5039 29.668 48.0352 29.668C47.5794 29.668 47.026 29.6745 46.375 29.6875C46.6615 29.4661 46.8958 29.2448 47.0781 29.0234C47.2604 28.8021 47.4036 28.6003 47.5078 28.418C47.625 28.2096 47.7096 28.0078 47.7617 27.8125C47.8268 27.4609 47.8333 27.0964 47.7812 26.7188C47.7422 26.3932 47.638 26.0352 47.4688 25.6445C47.2995 25.2409 47.026 24.8372 46.6484 24.4336C46.2708 24.4987 45.9518 24.5508 45.6914 24.5898C45.444 24.6159 45.2292 24.6419 45.0469 24.668C44.8385 24.694 44.6693 24.7135 44.5391 24.7266C44.4219 24.7396 44.2917 24.7526 44.1484 24.7656C44.0312 24.7786 43.901 24.7982 43.7578 24.8242C43.6276 24.8372 43.5039 24.8568 43.3867 24.8828C43.3607 25.4427 43.3607 25.931 43.3867 26.3477C43.4128 26.7513 43.4453 27.0898 43.4844 27.3633C43.5365 27.6888 43.5951 27.9688 43.6602 28.2031C43.7253 28.4375 43.8164 28.6654 43.9336 28.8867C44.0247 29.069 44.1419 29.2643 44.2852 29.4727C44.4284 29.668 44.5911 29.8307 44.7734 29.9609C44.4349 29.9609 44.1094 29.9609 43.7969 29.9609C43.4974 29.9609 43.224 29.9544 42.9766 29.9414C42.6901 29.9414 42.4167 29.9349 42.1562 29.9219C41.8958 29.9089 41.6029 29.9023 41.2773 29.9023C41.0039 29.9023 40.6784 29.9023 40.3008 29.9023C39.9362 29.9023 39.5391 29.9089 39.1094 29.9219C39.4479 29.5703 39.7148 29.2708 39.9102 29.0234C40.1055 28.776 40.2552 28.5677 40.3594 28.3984C40.4766 28.2161 40.5482 28.0599 40.5742 27.9297C40.6003 27.7214 40.6198 27.3503 40.6328 26.8164C40.6589 26.2695 40.6784 25.6445 40.6914 24.9414C40.7044 24.2383 40.7109 23.5026 40.7109 22.7344C40.7109 21.9661 40.7044 21.25 40.6914 20.5859C40.6784 19.9089 40.6654 19.3294 40.6523 18.8477C40.6393 18.3659 40.6263 18.0599 40.6133 17.9297C40.5742 17.6953 40.4896 17.4609 40.3594 17.2266C40.2552 17.0182 40.1055 16.7839 39.9102 16.5234C39.7148 16.263 39.4479 16.0026 39.1094 15.7422ZM46.4922 22.6172C46.6224 22.5391 46.7331 22.4609 46.8242 22.3828C46.9154 22.3047 46.9935 22.181 47.0586 22.0117C47.1237 21.8294 47.1758 21.5755 47.2148 21.25C47.2669 20.9245 47.3255 20.4818 47.3906 19.9219C47.4427 19.362 47.4036 18.8997 47.2734 18.5352C47.1562 18.1706 46.9935 17.8841 46.7852 17.6758C46.5898 17.4544 46.3685 17.3047 46.1211 17.2266C45.8867 17.1354 45.6784 17.0898 45.4961 17.0898C45.1315 17.0898 44.7734 17.2005 44.4219 17.4219C44.0703 17.6432 43.8034 17.9427 43.6211 18.3203C43.556 18.4896 43.4974 18.7695 43.4453 19.1602C43.4062 19.4987 43.3802 19.9674 43.3672 20.5664C43.3542 21.1654 43.3737 21.9531 43.4258 22.9297C43.9206 23.0078 44.3568 23.0404 44.7344 23.0273C45.112 23.0013 45.431 22.9557 45.6914 22.8906C46.0039 22.8255 46.2708 22.7344 46.4922 22.6172ZM52.6641 16.0547C53.1068 16.1198 53.4974 16.1654 53.8359 16.1914C54.1875 16.2174 54.4805 16.2435 54.7148 16.2695C54.9883 16.2956 55.2227 16.3086 55.418 16.3086H56.1797C56.6875 16.3086 57.5273 16.2891 58.6992 16.25C58.4128 16.3411 58.1719 16.4714 57.9766 16.6406C57.7943 16.8099 57.6445 16.9857 57.5273 17.168C57.3841 17.3763 57.2799 17.5911 57.2148 17.8125C57.1367 18.0859 57.0651 18.4505 57 18.9062C56.9349 19.3099 56.8698 19.8372 56.8047 20.4883C56.7526 21.1393 56.7005 21.9531 56.6484 22.9297C57.2083 22.2917 57.6966 21.7253 58.1133 21.2305C58.543 20.7357 58.9141 20.2995 59.2266 19.9219C59.5391 19.5443 59.7995 19.2188 60.0078 18.9453C60.2292 18.6719 60.4115 18.4375 60.5547 18.2422C60.8932 17.7995 61.0885 17.5 61.1406 17.3438C61.1536 17.2526 61.1471 17.1419 61.1211 17.0117C61.0951 16.9076 61.056 16.7839 61.0039 16.6406C60.9518 16.4844 60.8737 16.3151 60.7695 16.1328C61.2904 16.1589 61.7331 16.1784 62.0977 16.1914C62.4753 16.2044 62.7878 16.2174 63.0352 16.2305C63.3216 16.2435 63.556 16.25 63.7383 16.25H64.5586C64.8581 16.25 65.2487 16.25 65.7305 16.25C66.2122 16.237 66.8177 16.224 67.5469 16.2109C67.0651 16.3281 66.6094 16.4844 66.1797 16.6797C65.75 16.875 65.3659 17.0638 65.0273 17.2461C64.6367 17.4674 64.2721 17.6953 63.9336 17.9297C63.5951 18.1901 63.2174 18.4961 62.8008 18.8477C62.4492 19.1471 62.0391 19.5182 61.5703 19.9609C61.1016 20.3906 60.5938 20.8919 60.0469 21.4648C60.6328 22.6107 61.1406 23.5547 61.5703 24.2969C62.013 25.026 62.3841 25.612 62.6836 26.0547C63.0221 26.5755 63.3086 26.9727 63.543 27.2461C63.7773 27.4935 64.0508 27.7474 64.3633 28.0078C64.6237 28.2292 64.9492 28.4766 65.3398 28.75C65.7305 29.0104 66.1797 29.2643 66.6875 29.5117L61.1211 29.7852C61.1992 29.681 61.2448 29.5573 61.2578 29.4141C61.2839 29.2578 61.2969 29.1146 61.2969 28.9844C61.2969 28.8411 61.2839 28.6849 61.2578 28.5156C61.2057 28.3073 61.069 27.9688 60.8477 27.5C60.6654 27.0964 60.3854 26.5299 60.0078 25.8008C59.6302 25.0586 59.1094 24.082 58.4453 22.8711L56.7852 24.6094C56.7201 25.026 56.6875 25.4036 56.6875 25.7422C56.6875 26.0807 56.7005 26.3607 56.7266 26.582C56.7656 26.8555 56.8177 27.0898 56.8828 27.2852C56.9609 27.4805 57.0716 27.7018 57.2148 27.9492C57.332 28.1706 57.4883 28.431 57.6836 28.7305C57.8789 29.0299 58.1263 29.362 58.4258 29.7266C58.1263 29.6484 57.8268 29.5964 57.5273 29.5703C57.2279 29.5312 56.9544 29.5052 56.707 29.4922C56.4206 29.4792 56.1471 29.4857 55.8867 29.5117C55.6133 29.5378 55.2943 29.5768 54.9297 29.6289C54.6172 29.681 54.2331 29.7461 53.7773 29.8242C53.3216 29.9023 52.8008 30 52.2148 30.1172C52.5013 29.9479 52.7292 29.7656 52.8984 29.5703C53.0677 29.375 53.2044 29.1862 53.3086 29.0039C53.4258 28.7956 53.5039 28.5938 53.543 28.3984C53.569 28.2292 53.5885 27.8646 53.6016 27.3047C53.6276 26.7448 53.6406 26.0938 53.6406 25.3516C53.6536 24.5964 53.6536 23.8021 53.6406 22.9688C53.6276 22.1354 53.6146 21.3542 53.6016 20.625C53.5885 19.8958 53.569 19.2773 53.543 18.7695C53.5299 18.2487 53.5169 17.9297 53.5039 17.8125C53.4648 17.6302 53.4128 17.4349 53.3477 17.2266C53.2826 17.0443 53.1914 16.8555 53.0742 16.6602C52.9701 16.4518 52.8333 16.25 52.6641 16.0547ZM32.918 39.5664C33.3737 39.5664 33.7839 39.6445 34.1484 39.8008C34.526 39.944 34.8711 40.1068 35.1836 40.2891C35.5091 40.4714 35.8151 40.6406 36.1016 40.7969C36.388 40.9401 36.681 41.0117 36.9805 41.0117C37.2148 40.9987 37.4818 40.9661 37.7812 40.9141C38.0417 40.862 38.3411 40.7839 38.6797 40.6797C39.0312 40.5625 39.4219 40.3932 39.8516 40.1719C39.4219 40.5885 39.0703 40.9401 38.7969 41.2266C38.5365 41.5 38.3346 41.7279 38.1914 41.9102C38.0221 42.1185 37.8984 42.2812 37.8203 42.3984C37.7422 42.5417 37.625 42.7565 37.4688 43.043C37.3255 43.3034 37.1302 43.6549 36.8828 44.0977C36.6354 44.5273 36.3229 45.0938 35.9453 45.7969C35.9453 44.8984 35.8542 44.2018 35.6719 43.707C35.5026 43.2122 35.3138 42.8346 35.1055 42.5742C34.8581 42.2747 34.5781 42.0859 34.2656 42.0078C33.9792 41.9688 33.6927 42.0208 33.4062 42.1641C33.1198 42.2943 32.8333 42.4896 32.5469 42.75C32.2734 43.0104 32.0065 43.3229 31.7461 43.6875C31.4987 44.0391 31.2708 44.4102 31.0625 44.8008C30.8672 45.1914 30.7044 45.5885 30.5742 45.9922C30.444 46.3828 30.3594 46.7474 30.3203 47.0859C30.2812 47.3854 30.2747 47.737 30.3008 48.1406C30.3268 48.5312 30.3854 48.9349 30.4766 49.3516C30.5677 49.7552 30.6849 50.1523 30.8281 50.543C30.9714 50.9336 31.1471 51.2852 31.3555 51.5977C31.5768 51.8971 31.8242 52.1445 32.0977 52.3398C32.3711 52.5221 32.6836 52.6068 33.0352 52.5938C33.4258 52.5677 33.8099 52.4505 34.1875 52.2422C34.513 52.0729 34.8451 51.8125 35.1836 51.4609C35.5221 51.0964 35.8151 50.582 36.0625 49.918L38.9531 50.4453C38.1198 51.4609 37.306 52.2227 36.5117 52.7305C35.7305 53.2383 35.0273 53.5964 34.4023 53.8047C33.6732 54.0391 32.9831 54.1497 32.332 54.1367C31.5117 54.0456 30.7435 53.7982 30.0273 53.3945C29.3112 52.9909 28.6927 52.5026 28.1719 51.9297C27.6641 51.3438 27.2669 50.7057 26.9805 50.0156C26.694 49.3255 26.5703 48.6484 26.6094 47.9844C26.6354 47.5417 26.7266 47.0273 26.8828 46.4414C27.0391 45.8424 27.2474 45.2305 27.5078 44.6055C27.7812 43.9805 28.1068 43.3685 28.4844 42.7695C28.862 42.1706 29.2786 41.6367 29.7344 41.168C30.1901 40.6862 30.6849 40.3021 31.2188 40.0156C31.7656 39.7161 32.332 39.5664 32.918 39.5664ZM43.9922 45.25C44.3307 45.25 44.6823 45.3151 45.0469 45.4453C45.4115 45.5625 45.763 45.7188 46.1016 45.9141C46.4401 46.0964 46.7461 46.2982 47.0195 46.5195C47.306 46.7279 47.5404 46.9297 47.7227 47.125C48.0482 47.4766 48.2695 47.9518 48.3867 48.5508C48.5169 49.1367 48.543 49.7422 48.4648 50.3672C48.3867 50.9792 48.2044 51.5586 47.918 52.1055C47.6315 52.6523 47.2344 53.056 46.7266 53.3164C46.362 53.4987 46.0039 53.6419 45.6523 53.7461C45.3008 53.8503 44.9622 53.9284 44.6367 53.9805C44.3112 54.0326 44.0052 54.0586 43.7188 54.0586C43.4323 54.0586 43.1849 54.0521 42.9766 54.0391C42.5859 54.013 42.1758 53.8763 41.7461 53.6289C41.3294 53.3815 40.9323 53.0755 40.5547 52.7109C40.1901 52.3464 39.8776 51.9492 39.6172 51.5195C39.3568 51.0768 39.2005 50.6602 39.1484 50.2695C39.0703 49.7357 39.0573 49.1758 39.1094 48.5898C39.1615 48.0039 39.3503 47.4635 39.6758 46.9688C40.0143 46.474 40.5221 46.0638 41.1992 45.7383C41.8893 45.4128 42.8203 45.25 43.9922 45.25ZM43.3477 52.8281C43.4909 52.8542 43.6862 52.8216 43.9336 52.7305C44.181 52.6263 44.4219 52.4635 44.6562 52.2422C44.9036 52.0208 45.1185 51.7409 45.3008 51.4023C45.4961 51.0508 45.6133 50.6276 45.6523 50.1328C45.6914 49.651 45.6914 49.2083 45.6523 48.8047C45.6263 48.401 45.5677 48.0495 45.4766 47.75C45.3854 47.4375 45.2812 47.1836 45.1641 46.9883C45.0469 46.793 44.9232 46.6562 44.793 46.5781C44.5716 46.4609 44.3047 46.3698 43.9922 46.3047C43.6797 46.2266 43.4128 46.2396 43.1914 46.3438C43.0872 46.3958 42.957 46.5065 42.8008 46.6758C42.6445 46.8451 42.4883 47.0599 42.332 47.3203C42.1758 47.5677 42.0326 47.8542 41.9023 48.1797C41.7852 48.5052 41.7005 48.8438 41.6484 49.1953C41.5964 49.5469 41.5833 49.9245 41.6094 50.3281C41.6484 50.7318 41.7331 51.1159 41.8633 51.4805C41.9935 51.832 42.1758 52.138 42.4102 52.3984C42.6576 52.6458 42.9701 52.7891 43.3477 52.8281ZM58.9922 39.0391C59.2396 39.0521 59.5065 39.0586 59.793 39.0586C60.0404 39.0586 60.3203 39.0651 60.6328 39.0781C60.9583 39.0781 61.2969 39.0651 61.6484 39.0391C61.3359 39.1823 61.0625 39.3906 60.8281 39.6641C60.5938 39.9375 60.4049 40.2109 60.2617 40.4844C60.0794 40.8099 59.9297 41.1484 59.8125 41.5C59.7474 41.7083 59.6953 42.0794 59.6562 42.6133C59.6172 43.1341 59.5846 43.7461 59.5586 44.4492C59.5456 45.1523 59.5391 45.8945 59.5391 46.6758C59.5391 47.457 59.5456 48.2057 59.5586 48.9219C59.5716 49.625 59.5911 50.25 59.6172 50.7969C59.6432 51.3438 59.6758 51.7279 59.7148 51.9492C59.7669 52.2096 59.832 52.457 59.9102 52.6914C59.9753 52.8997 60.0599 53.1146 60.1641 53.3359C60.2682 53.5443 60.3984 53.7135 60.5547 53.8438L58.5625 54.7422C58.4583 54.599 58.3737 54.4492 58.3086 54.293C58.2435 54.1497 58.1914 54.0195 58.1523 53.9023C58.1003 53.7591 58.0677 53.6289 58.0547 53.5117C58.0286 53.3555 58.0026 53.1862 57.9766 53.0039C57.9505 52.8086 57.918 52.6263 57.8789 52.457C57.8529 52.2747 57.8333 52.125 57.8203 52.0078C57.8073 51.8906 57.8073 51.819 57.8203 51.793C57.8333 51.7669 57.7552 51.8841 57.5859 52.1445C57.4167 52.3919 57.1628 52.6849 56.8242 53.0234C56.4987 53.349 56.0951 53.668 55.6133 53.9805C55.1315 54.2799 54.5911 54.4688 53.9922 54.5469C53.3802 54.625 52.8138 54.5078 52.293 54.1953C51.7852 53.8828 51.349 53.4466 50.9844 52.8867C50.6198 52.3138 50.3398 51.6562 50.1445 50.9141C49.9622 50.1589 49.8906 49.3906 49.9297 48.6094C49.9557 48.0885 50.0729 47.6263 50.2812 47.2227C50.4896 46.806 50.75 46.4479 51.0625 46.1484C51.388 45.8359 51.7396 45.5755 52.1172 45.3672C52.5078 45.1458 52.8854 44.9635 53.25 44.8203C53.6276 44.6771 53.9792 44.5729 54.3047 44.5078C54.6302 44.4427 54.8906 44.3971 55.0859 44.3711C55.3203 44.3581 55.5872 44.3971 55.8867 44.4883C56.1471 44.5664 56.4466 44.6966 56.7852 44.8789C57.1367 45.0612 57.5273 45.3346 57.957 45.6992C57.8789 44.3971 57.8073 43.3555 57.7422 42.5742C57.6771 41.7799 57.612 41.1745 57.5469 40.7578C57.4818 40.263 57.4232 39.9245 57.3711 39.7422C57.306 39.612 57.2214 39.4818 57.1172 39.3516C57.026 39.2474 56.9089 39.1432 56.7656 39.0391C56.6354 38.9219 56.4792 38.8307 56.2969 38.7656C56.6354 38.8307 56.9609 38.8763 57.2734 38.9023C57.5859 38.9284 57.8724 38.9544 58.1328 38.9805C58.4323 39.0065 58.7188 39.026 58.9922 39.0391ZM54.0898 46.3242C53.8424 46.4154 53.6406 46.5716 53.4844 46.793C53.3411 47.0143 53.224 47.2812 53.1328 47.5938C53.0417 47.8932 52.9766 48.2188 52.9375 48.5703C52.9115 48.9089 52.8919 49.2409 52.8789 49.5664C52.8789 49.8789 52.8789 50.1654 52.8789 50.4258C52.8789 50.6862 52.8789 50.8815 52.8789 51.0117C52.8789 51.0898 52.8919 51.2331 52.918 51.4414C52.957 51.6367 53.0352 51.8451 53.1523 52.0664C53.2695 52.2747 53.4323 52.4635 53.6406 52.6328C53.862 52.8021 54.1549 52.8867 54.5195 52.8867C54.819 52.8607 55.138 52.7565 55.4766 52.5742C55.776 52.418 56.1146 52.1706 56.4922 51.832C56.8828 51.4805 57.2995 50.9792 57.7422 50.3281C57.7161 49.9115 57.6966 49.5664 57.6836 49.293C57.6836 49.0195 57.6771 48.7982 57.6641 48.6289C57.651 48.4336 57.6445 48.2773 57.6445 48.1602V47.8672C57.6445 47.7891 57.6445 47.7044 57.6445 47.6133C57.6445 47.5221 57.651 47.4375 57.6641 47.3594C57.2995 47.099 56.974 46.8776 56.6875 46.6953C56.4141 46.5 56.1406 46.3568 55.8672 46.2656C55.6068 46.1615 55.3333 46.1159 55.0469 46.1289C54.7734 46.1289 54.4544 46.194 54.0898 46.3242ZM66.3164 50.8555C66.681 50.8555 67.0195 50.8164 67.332 50.7383C67.5924 50.6732 67.8398 50.569 68.0742 50.4258C68.3216 50.2695 68.4844 50.0417 68.5625 49.7422C68.8229 49.7943 69.0443 49.8398 69.2266 49.8789C69.4089 49.9049 69.5651 49.931 69.6953 49.957C69.8385 49.9961 69.9622 50.0221 70.0664 50.0352C70.1706 50.0612 70.2943 50.0872 70.4375 50.1133C70.5677 50.1393 70.724 50.1719 70.9062 50.2109C71.1016 50.237 71.3294 50.276 71.5898 50.3281C71.3945 50.3021 71.1927 50.3216 70.9844 50.3867C70.7891 50.4518 70.6003 50.5234 70.418 50.6016C70.2096 50.6927 70.0143 50.8034 69.832 50.9336C69.7148 51.0117 69.5781 51.1289 69.4219 51.2852C69.2786 51.4414 69.0703 51.5911 68.7969 51.7344C68.5234 51.8776 68.1589 52.0013 67.7031 52.1055C67.2604 52.1966 66.6875 52.2292 65.9844 52.2031C65.138 52.1771 64.4284 52.0273 63.8555 51.7539C63.2826 51.4674 62.8203 51.1224 62.4688 50.7188C62.1172 50.3021 61.8633 49.8529 61.707 49.3711C61.5508 48.8893 61.4661 48.4401 61.4531 48.0234C61.4401 47.6068 61.5638 47.1706 61.8242 46.7148C62.0846 46.2591 62.4492 45.8424 62.918 45.4648C63.3997 45.0872 63.9792 44.7812 64.6562 44.5469C65.3333 44.2995 66.0755 44.1758 66.8828 44.1758C67.3516 44.1758 67.7812 44.2344 68.1719 44.3516C68.5755 44.4557 68.9401 44.599 69.2656 44.7812C69.6042 44.9635 69.8971 45.1719 70.1445 45.4062C70.3919 45.6276 70.6003 45.8555 70.7695 46.0898C70.9388 46.3372 71.082 46.5977 71.1992 46.8711C71.3034 47.1055 71.388 47.3724 71.4531 47.6719C71.5182 47.9714 71.5378 48.2773 71.5117 48.5898C70.5221 48.6159 69.7214 48.6354 69.1094 48.6484C68.5104 48.6615 68.0417 48.668 67.7031 48.668H66.8242H66.1602C65.9258 48.668 65.6198 48.6745 65.2422 48.6875C64.8646 48.7005 64.4023 48.7201 63.8555 48.7461C63.9206 49.2669 64.0833 49.6706 64.3438 49.957C64.6172 50.2305 64.9036 50.4388 65.2031 50.582C65.5417 50.7383 65.9128 50.8294 66.3164 50.8555ZM64.5586 47.3398C64.9753 47.3659 65.3203 47.3854 65.5938 47.3984C65.8802 47.4115 66.1146 47.4245 66.2969 47.4375C66.4922 47.4505 66.6484 47.457 66.7656 47.457H67.2539C67.5794 47.457 68.1849 47.4375 69.0703 47.3984C69.0312 46.8255 68.9076 46.3893 68.6992 46.0898C68.5039 45.7904 68.2956 45.569 68.0742 45.4258C67.8138 45.2695 67.5273 45.1784 67.2148 45.1523C66.3685 45.1654 65.737 45.3411 65.3203 45.6797C64.9167 46.0182 64.6628 46.5716 64.5586 47.3398Z" fill="white"/>
</svg>
